<svg id="eb6eg1zvyx4a1" xmlns="http://www.w3.org/2000/svg" xmlns:xlink="http://www.w3.org/1999/xlink" viewBox="0 0 970.150000 753.560000" shape-rendering="geometricPrecision" text-rendering="geometricPrecision"><style><![CDATA[#eb6eg1zvyx4a50_tr {animation: eb6eg1zvyx4a50_tr__tr 3000ms linear infinite normal forwards}@keyframes eb6eg1zvyx4a50_tr__tr { 0% {transform: translate(862.800000px,87.573741px) rotate(0deg)} 100% {transform: translate(862.800000px,87.573741px) rotate(360deg)} }]]></style><g id="eb6eg1zvyx4a2"><g id="eb6eg1zvyx4a3"><path id="eb6eg1zvyx4a4" d="M718.770000,430.510000L526.100000,189.750000C517.369324,197.742256,506.611488,203.183438,495,205.480000C458.730000,212.630000,423.300000,187.860000,415.880000,150.160000C410.630000,123.510000,420.790000,97.550000,440,82.090000L374.260000,0L0,319.860000L344.510000,750.370000Z" fill="rgb(242,242,242)" stroke="none" stroke-width="1"/><line id="eb6eg1zvyx4a5" x1="82.150000" y1="752.560000" x2="970.150000" y2="752.560000" fill="none" stroke="rgb(63,61,86)" stroke-width="2" stroke-miterlimit="10"/><circle id="eb6eg1zvyx4a6" r="14.760000" transform="matrix(1 0 0 1 619.42999999999995 56.92000000000000)" fill="none" stroke="rgb(63,61,86)" stroke-width="2" stroke-miterlimit="10"/><circle id="eb6eg1zvyx4a7" r="14.760000" transform="matrix(1 0 0 1 814.42999999999995 485.92000000000002)" fill="none" stroke="rgb(63,61,86)" stroke-width="2" stroke-miterlimit="10"/><circle id="eb6eg1zvyx4a8" r="14.760000" transform="matrix(1 0 0 1 170.69999999999999 93.92000000000000)" fill="none" stroke="rgb(63,61,86)" stroke-width="2" stroke-miterlimit="10"/><circle id="eb6eg1zvyx4a9" r="54.320000" transform="matrix(1 0 0 1 479.38000000000000 139.72999999999999)" fill="rgb(242,242,242)" stroke="none" stroke-width="1"/><path id="eb6eg1zvyx4a10" d="M156.880000,109.380000L397.500000,109.380000C421.414472,109.382567,442.136572,125.951941,447.400000,149.280000L569,688.550000C571.416904,699.253172,569.480591,710.478110,563.617456,719.752967C557.754321,729.027824,548.445179,735.592001,537.740000,738C535.419339,738.533239,533.057463,738.867782,530.680000,739L283.330000,751.120000C255.931323,752.467265,231.783724,733.283553,226.900000,706.290000L157.930000,325L152.800000,326.470000L139.600000,254.200000L144.880000,252.880000L125.630000,146.480000C122.534961,129.368766,133.890802,112.986275,151,109.880000C152.939745,109.527515,154.908589,109.360096,156.880000,109.380000Z" fill="rgb(63,61,86)" stroke="none" stroke-width="1"/><path id="eb6eg1zvyx4a11" d="M365.820000,121L393.910000,121C410.530779,121.003173,424.905864,132.581484,428.450000,148.820000L545.140000,683.690000C546.379358,689.364483,545.312701,695.298892,542.174880,700.186615C539.037059,705.074339,534.085351,708.514623,528.410000,709.750000C527.347188,709.988487,526.267135,710.142302,525.180000,710.210000L278.620000,726.370000C264.218679,727.315361,251.404201,717.294500,248.850000,703.090000L149.270000,150.250000C147.978026,143.008736,149.956469,135.566924,154.673955,129.923306C159.391441,124.279688,166.364394,121.012774,173.720000,121L200.370000,121C205.671227,121.002954,210.311591,124.561113,211.690000,129.680000L211.690000,129.680000C212.909974,134.199318,217.008913,137.339105,221.690000,137.340000L348.180000,137.340000C357.426885,137.340830,365.114330,130.219920,365.820000,121Z" fill="rgb(42,164,221)" stroke="none" stroke-width="1"/><rect id="eb6eg1zvyx4a12" width="255.130000" height="1.260000" rx="0" ry="0" transform="matrix(1 0 0 1 189.25000000000000 259.25000000000000)" fill="rgb(47,46,65)" stroke="none" stroke-width="1"/><rect id="eb6eg1zvyx4a13" width="257.640000" height="1.260000" rx="0" ry="0" transform="matrix(1 0 0 1 196.78999999999999 300.10000000000002)" fill="rgb(47,46,65)" stroke="none" stroke-width="1"/><polygon id="eb6eg1zvyx4a14" points="205.360000,257.260000 211.150000,249.530000 210.150000,248.780000 205.140000,255.460000 185.830000,239.660000 185.040000,240.630000 205.360000,257.260000" fill="rgb(47,46,65)" stroke="none" stroke-width="1"/><polygon id="eb6eg1zvyx4a15" points="238.660000,439.490000 244.460000,431.760000 243.450000,431.010000 238.440000,437.690000 219.140000,421.890000 218.340000,422.870000 238.660000,439.490000" fill="rgb(47,46,65)" stroke="none" stroke-width="1"/><rect id="eb6eg1zvyx4a16" width="267.120000" height="1.260000" rx="0" ry="0" transform="matrix(0.99977700000000 -0.02111700000000 0.02111700000000 0.99977700000000 215.60450211000000 445.25830397000004)" fill="rgb(47,46,65)" stroke="none" stroke-width="1"/><rect id="eb6eg1zvyx4a17" width="272.160000" height="1.260000" rx="0" ry="0" transform="matrix(0.99973500000000 -0.02303600000000 0.02303600000000 0.99973500000000 218.73493706000005 482.96395571000005)" fill="rgb(47,46,65)" stroke="none" stroke-width="1"/><path id="eb6eg1zvyx4a18" style="isolation:isolate" d="M324,583.810000C324.422818,616.477322,351.024941,642.737358,383.695000,642.737358C416.365059,642.737358,442.967182,616.477322,443.390000,583.810000C443.390000,583.060000,443.390000,582.320000,443.340000,581.580000C442.148858,549.052869,415.118056,523.476693,382.574804,524.084799C350.031551,524.692906,323.975124,551.261076,324,583.810000Z" opacity="0.1" fill="rgb(0,0,0)" stroke="none" stroke-width="1"/><path id="eb6eg1zvyx4a19" style="isolation:isolate" d="M329.690000,607.060000C329.690000,607.810000,329.690000,608.550000,329.690000,609.290000C341.622237,634.551384,369.475520,648.161934,396.737078,642.052659C423.998636,635.943385,443.379600,611.747711,443.390000,583.810000C443.390000,583.060000,443.390000,582.320000,443.340000,581.580000C431.415156,556.311071,403.559041,542.693342,376.294020,548.803930C349.028999,554.914518,329.649444,579.118621,329.650000,607.060000Z" opacity="0.1" fill="rgb(0,0,0)" stroke="none" stroke-width="1"/><circle id="eb6eg1zvyx4a20" r="36.800000" transform="matrix(1 0 0 1 692.95000000000005 234.91999999999999)" fill="rgb(47,46,65)" stroke="none" stroke-width="1"/><polygon id="eb6eg1zvyx4a21" points="732.650000,696.060000 739.650000,726.060000 722.650000,726.060000 715.650000,692.060000 732.650000,696.060000" fill="rgb(159,97,106)" stroke="none" stroke-width="1"/><polygon id="eb6eg1zvyx4a22" points="650.650000,696.060000 650.650000,724.060000 633.650000,726.060000 633.650000,696.060000 650.650000,696.060000" fill="rgb(159,97,106)" stroke="none" stroke-width="1"/><path id="eb6eg1zvyx4a23" d="M737.650000,378.060000C737.650000,378.060000,735.650000,421.060000,733.650000,424.060000C731.650000,427.060000,713.650000,470.060000,713.650000,470.060000L704.650000,442.060000C704.650000,442.060000,718.650000,419.060000,716.650000,406.060000C714.650000,393.060000,715.910000,377.060000,715.910000,377.060000Z" fill="rgb(159,97,106)" stroke="none" stroke-width="1"/><circle id="eb6eg1zvyx4a24" r="28" transform="matrix(1 0 0 1 680.64999999999998 246.06000000000000)" fill="rgb(159,97,106)" stroke="none" stroke-width="1"/><path id="eb6eg1zvyx4a25" d="M703.650000,249.060000C703.650000,249.060000,702.650000,289.060000,709.650000,295.060000C716.650000,301.060000,669.650000,296.060000,669.650000,296.060000C669.650000,296.060000,679.650000,268.060000,671.650000,262.060000C663.650000,256.060000,703.650000,249.060000,703.650000,249.060000Z" fill="rgb(159,97,106)" stroke="none" stroke-width="1"/><path id="eb6eg1zvyx4a26" d="M666.650000,294.060000C666.650000,294.060000,672.650000,283.060000,680.650000,284.060000C688.650000,285.060000,714.650000,287.060000,715.650000,289.060000C716.650000,291.060000,719.650000,298.060000,721.650000,300.060000C723.650000,302.060000,738.650000,305.060000,739.650000,317.060000C740.650000,329.060000,703.650000,402.060000,703.650000,402.060000C703.650000,402.060000,708.650000,419.060000,707.650000,423.060000C706.650000,427.060000,712.650000,439.060000,711.650000,444.060000C710.650000,449.060000,726.650000,479.060000,718.650000,518.060000L718.650000,581.060000C718.650000,581.060000,745.650000,690.060000,737.650000,698.060000C729.650000,706.060000,702.650000,701.060000,697.650000,698.060000C692.650000,695.060000,671.650000,544.060000,671.650000,544.060000L661.650000,493.060000L660.650000,605.060000C660.650000,605.060000,662.650000,699.060000,655.650000,702.060000C648.650000,705.060000,621.650000,706.060000,619.650000,700.060000C618.090000,695.380000,610.450000,570.880000,607.160000,516.300000C606.022781,497.459484,607.506951,478.552307,611.570000,460.120000C615.730000,441.240000,621.770000,419.070000,628.650000,410.060000C641.650000,393.060000,649.650000,339.060000,649.650000,339.060000L632.650000,308.060000C632.650000,308.060000,642.650000,298.060000,648.650000,298.060000C654.650000,298.060000,666.650000,294.060000,666.650000,294.060000Z" fill="rgb(47,46,65)" stroke="none" stroke-width="1"/><path id="eb6eg1zvyx4a27" d="M733.650000,310.060000L738.930000,313.650000C738.930000,313.650000,742.650000,378.060000,739.650000,382.060000C736.650000,386.060000,715.800000,384.110000,714.230000,380.590000C712.660000,377.070000,733.650000,310.060000,733.650000,310.060000Z" fill="rgb(47,46,65)" stroke="none" stroke-width="1"/><path id="eb6eg1zvyx4a28" d="M644.480000,368.630000C647.400000,388.930000,650,407,635,423.360000C619.962366,439.915716,602.998554,454.613434,584.470000,467.140000C582.630000,472,555.680000,507.710000,554.310000,493.460000C552.940000,479.210000,562.250000,468.050000,575.480000,456.010000C588.710000,443.970000,607.230000,417.830000,617.670000,403.490000C628.110000,389.150000,623.820000,380.200000,623.450000,368.230000C623.080000,356.260000,640.370000,368.770000,644.480000,368.630000Z" fill="rgb(159,97,106)" stroke="none" stroke-width="1"/><path id="eb6eg1zvyx4a29" d="M633.650000,707.860000C633.650000,707.860000,632.650000,719.060000,629.650000,722.060000C626.650000,725.060000,618.650000,729.060000,619.650000,740.060000C620.650000,751.060000,627.150000,751.560000,627.150000,751.560000L626.650000,749.060000L629.650000,750.060000L630.150000,751.560000L658.150000,751.560000C658.150000,751.560000,658.650000,741.060000,657.650000,736.060000C656.650000,731.060000,656.650000,707.060000,653.650000,708.060000C650.650000,709.060000,642.650000,710.060000,640.650000,714.060000C638.650000,718.060000,632.650000,716.660000,633.650000,707.860000Z" fill="rgb(47,46,65)" stroke="none" stroke-width="1"/><path id="eb6eg1zvyx4a30" d="M735.650000,707.860000C735.650000,707.860000,736.650000,719.060000,739.650000,722.060000C742.650000,725.060000,750.650000,729.060000,749.650000,740.060000C748.650000,751.060000,742.150000,751.560000,742.150000,751.560000L742.650000,749.060000L739.650000,750.060000L739.150000,751.560000L711.150000,751.560000C711.150000,751.560000,710.650000,741.060000,711.650000,736.060000C712.650000,731.060000,712.650000,707.060000,715.650000,708.060000C718.650000,709.060000,726.650000,710.060000,728.650000,714.060000C730.650000,718.060000,736.650000,716.660000,735.650000,707.860000Z" fill="rgb(47,46,65)" stroke="none" stroke-width="1"/><path id="eb6eg1zvyx4a31" d="M646.650000,305.060000L632.650000,308.060000C632.650000,308.060000,632.650000,330.060000,628.650000,339.060000C624.650000,348.060000,617.650000,369.060000,620.650000,370.060000C623.650000,371.060000,651.650000,385.060000,653.650000,377.060000C655.650000,369.060000,660.650000,305.060000,646.650000,305.060000Z" fill="rgb(47,46,65)" stroke="none" stroke-width="1"/><circle id="eb6eg1zvyx4a32" r="36.800000" transform="matrix(1 0 0 1 732.82000000000005 186.46000000000001)" fill="rgb(47,46,65)" stroke="none" stroke-width="1"/><path id="eb6eg1zvyx4a33" d="M764.560000,216.940000C754.893224,223.921853,742.443255,225.788480,731.153971,221.948574C719.864686,218.108668,711.134894,209.038015,707.730000,197.610000C709.474436,211.359581,718.796162,222.962901,731.846702,227.629529C744.897243,232.296158,759.462885,229.234512,769.530203,219.708593C779.597521,210.182674,783.458835,195.808326,779.520000,182.520000C781.195986,195.864782,775.460372,209.061293,764.560000,216.940000Z" fill="rgb(47,46,65)" stroke="none" stroke-width="1"/><circle id="eb6eg1zvyx4a34" r="26.990000" transform="matrix(1 0 0 1 702.76999999999998 241.05000000000001)" fill="rgb(47,46,65)" stroke="none" stroke-width="1"/><ellipse id="eb6eg1zvyx4a35" rx="23.920000" ry="18.710000" transform="matrix(1 0 0 1 680.07000000000005 230.93000000000001)" fill="rgb(47,46,65)" stroke="none" stroke-width="1"/><ellipse id="eb6eg1zvyx4a36" rx="4.540000" ry="8.030000" transform="matrix(1 0 0 1 673.69000000000005 250.09999999999999)" fill="rgb(160,97,106)" stroke="none" stroke-width="1"/><circle id="eb6eg1zvyx4a37" r="47.910000" transform="matrix(1 0 0 1 852.63999999999999 94.11000000000000)" fill="rgb(42,164,221)" stroke="none" stroke-width="1"/><path id="eb6eg1zvyx4a38" d="M869.330000,37.170000C864.994040,36.619977,860.605960,36.619977,856.270000,37.170000C836.553072,39.788690,820.157481,53.631254,814.270000,72.630000C812.935311,76.869721,812.171918,81.268483,812,85.710000C812,86.320000,812,86.950000,812,87.570000C812.027553,115.621787,834.758219,138.356927,862.810000,138.390000C863.890000,138.390000,864.970000,138.390000,866.040000,138.280000C868.545242,138.137564,871.035875,137.803251,873.490000,137.280000C897.676133,132.075437,914.600243,110.210282,913.575244,85.491748C912.550245,60.773215,893.873993,40.384294,869.340000,37.200000ZM878.710000,134.310000L878.710000,134.310000C874.603561,135.707249,870.329315,136.551337,866,136.820000C864.930000,136.900000,863.850000,136.930000,862.770000,136.930000C835.520649,136.902439,813.437561,114.819351,813.410000,87.570000C813.410000,86.950000,813.410000,86.320000,813.410000,85.710000C814.356210,60.790527,833.740682,40.490995,858.590056,38.397180C883.439430,36.303366,905.947361,53.073034,911.050067,77.482824C916.152774,101.892614,902.247257,126.274274,878.640000,134.310000Z" fill="rgb(63,61,86)" stroke="none" stroke-width="1"/><rect id="eb6eg1zvyx4a39" width="1.450000" height="10.160000" rx="0" ry="0" transform="matrix(1 0 0 1 862.08000000000004 41.12000000000000)" fill="rgb(63,61,86)" stroke="none" stroke-width="1"/><rect id="eb6eg1zvyx4a40" width="1.450000" height="10.160000" rx="0" ry="0" transform="matrix(0.70710700000000 -0.70710700000000 0.70710700000000 0.70710700000000 829.43922842000029 55.24352493999993)" fill="rgb(63,61,86)" stroke="none" stroke-width="1"/><rect id="eb6eg1zvyx4a41" width="10.160000" height="1.450000" rx="0" ry="0" transform="matrix(1 0 0 1 816.34000000000003 86.84999999999999)" fill="rgb(63,61,86)" stroke="none" stroke-width="1"/><rect id="eb6eg1zvyx4a42" width="10.160000" height="1.450000" rx="0" ry="0" transform="matrix(0.70710700000000 -0.70710700000000 0.70710700000000 0.70710700000000 829.43498792000025 119.90525748000005)" fill="rgb(63,61,86)" stroke="none" stroke-width="1"/><rect id="eb6eg1zvyx4a43" width="10.160000" height="1.450000" rx="0" ry="0" transform="matrix(0.70710700000000 -0.70710700000000 0.70710700000000 0.70710700000000 887.95205899000018 61.39252526999996)" fill="rgb(63,61,86)" stroke="none" stroke-width="1"/><rect id="eb6eg1zvyx4a44" width="10.160000" height="1.450000" rx="0" ry="0" transform="matrix(1 0 0 1 899.10000000000002 86.84999999999999)" fill="rgb(63,61,86)" stroke="none" stroke-width="1"/><rect id="eb6eg1zvyx4a45" width="1.450000" height="10.160000" rx="0" ry="0" transform="matrix(0.70710700000000 -0.70710700000000 0.70710700000000 0.70710700000000 887.95488956000020 113.75352493999992)" fill="rgb(63,61,86)" stroke="none" stroke-width="1"/><rect id="eb6eg1zvyx4a46" width="1.450000" height="10.160000" rx="0" ry="0" transform="matrix(1 0 0 1 862.08000000000004 123.87000000000000)" fill="rgb(63,61,86)" stroke="none" stroke-width="1"/><rect id="eb6eg1zvyx4a47" width="13.070000" height="13.070000" rx="0" ry="0" transform="matrix(1 0 0 1 856.26999999999998 24.42000000000000)" fill="rgb(63,61,86)" stroke="none" stroke-width="1"/><path id="eb6eg1zvyx4a48" d="M862.800000,14.260000C872.420000,14.260000,880.220000,17.020000,880.220000,20.430000C880.220000,23.840000,872.420000,26.600000,862.800000,26.600000C853.180000,26.600000,845.380000,23.840000,845.380000,20.430000C845.380000,17.020000,853.180000,14.260000,862.800000,14.260000" fill="rgb(63,61,86)" stroke="none" stroke-width="1"/><g id="eb6eg1zvyx4a49"><g id="eb6eg1zvyx4a50_tr" transform="translate(862.800000,87.573741) rotate(0)"><g id="eb6eg1zvyx4a50" transform="translate(-862.800000,-87.573741)"><rect id="eb6eg1zvyx4a51" width="4.360000" height="24.680000" rx="0" ry="0" transform="matrix(1 0 0 1 860.62000000000000 59.99000000000000)" fill="rgb(63,61,86)" stroke="none" stroke-width="1"/><path id="eb6eg1zvyx4a52" d="M865,84.670000C863.708519,83.699999,861.931481,83.699999,860.640000,84.670000C860.222176,84.999374,859.880961,85.415656,859.640000,85.890000C858.732438,87.599648,859.325963,89.720659,860.989053,90.710959C862.652144,91.701259,864.799707,91.212448,865.870362,89.599915C866.941017,87.987382,866.558096,85.818435,865,84.670000ZM862.820000,89.750000C861.618294,89.744525,860.645475,88.771706,860.640000,87.570000C860.646540,87.130622,860.782168,86.702871,861.030000,86.340000C861.617940,85.495655,862.717996,85.180253,863.664009,85.584791C864.610022,85.989329,865.141909,87.002590,864.937577,88.010975C864.733245,89.019359,863.848869,89.745638,862.820000,89.750000Z" fill="rgb(63,61,86)" stroke="none" stroke-width="1"/></g></g></g><line id="eb6eg1zvyx4a53" x1="931.990000" y1="137.630000" x2="795.530000" y2="137.630000" fill="rgb(63,61,86)" stroke="none" stroke-width="1"/><line id="eb6eg1zvyx4a54" x1="795.530000" y1="136.170000" x2="931.990000" y2="136.170000" fill="rgb(63,61,86)" stroke="none" stroke-width="1"/></g></g></svg>