<svg data-name="Layer 1" viewBox="0 0 865.8 650.46" xmlns="http://www.w3.org/2000/svg">
<path transform="translate(-167.1 -124.77)" d="m573.1 755.44c0 9.9411-91 11-203 18-111.9 6.9935-203-8.0589-203-18s91.524-29.944 203-18c112 12 203 8.0589 203 18z" fill="#e6e6e6"/>
<path transform="translate(-167.1 -124.77)" d="m1001.1 124.77h-240.62a51.15 51.15 0 0 0-49.898 39.901l-121.58 539.27a41.34 41.34 0 0 0 38.294 50.382l247.35 12.187a54.615 54.615 0 0 0 56.43-44.827l68.967-381.27 5.1308 1.466 13.196-72.265-5.2814-1.3204 19.251-106.43a31.493 31.493 0 0 0-31.25-37.097z" fill="#3f3d56"/>
<path transform="translate(-167.1 -124.77)" d="m792.2 136.39h-28.087a35.349 35.349 0 0 0-34.536 27.813l-116.7 534.87a21.903 21.903 0 0 0 19.967 26.525l246.55 16.159a28.367 28.367 0 0 0 29.773-23.277l99.58-552.84a24.846 24.846 0 0 0-24.452-29.25h-26.645a11.726 11.726 0 0 0-11.323 8.6774 10.352 10.352 0 0 1-9.9959 7.6606h-126.49a17.695 17.695 0 0 1-17.643-16.338z" fill="#fff"/>
<path transform="translate(-167.1 -124.77)" d="m528.29 411.51 21.739 43.037 65.001 29.55c6.9415 11.731 28.999 12.629 30.604 5.0428 1.7996-8.5106-26.786-22.209-26.786-22.209l-54.368-36.774-4.757-31.657z" fill="#a0616a"/>
<polygon points="363.75 575.56 359.74 607.63 383 609.24 385.4 575.56" fill="#a0616a"/>
<path transform="translate(-167.1 -124.77)" d="m534.06 727.59a62.966 62.966 0 0 1-5.7378-7.017c-3.3325-4.6115-6.2894 19.044-6.2894 19.044s-3.2073 9.6218-2.4054 14.433 19.244 4.811 22.451 4.0091 19.244 0 19.244 0h24.055c20.847-9.6218 0-16.036 0-16.036-6.4146-0.80178-28.064-20.847-28.064-20.847l-4.8109-8.82c-3.2073-0.80185-6.4146 11.226-6.4146 11.226z" fill="#2f2e41"/>
<polygon points="303.62 575.96 299.61 608.03 322.86 609.64 325.27 575.96" fill="#a0616a"/>
<path transform="translate(-167.1 -124.77)" d="m473.92 727.99a62.963 62.963 0 0 1-5.7378-7.017c-3.3325-4.6115-6.2894 19.044-6.2894 19.044s-3.2073 8.82-2.4054 13.631 19.244 4.8109 22.451 4.0091 19.244 0.80186 19.244 0.80186h24.055c20.847-9.6218 0-16.036 0-16.036-6.4146-0.80185-28.064-20.847-28.064-20.847l-4.8109-8.82c-3.2073-0.80185-6.4146 11.226-6.4146 11.226z" fill="#2f2e41"/>
<path transform="translate(-167.1 -124.77)" d="m497.18 493.86c-3.2073 4.009-1.6037 17.64-1.6037 17.64s-5.6128 44.1-3.2073 48.11-1.6036 7.2164-4.0091 12.829-4.8109 19.244-4.8109 19.244c-13.631 11.225-12.829 62.542-12.829 62.542l-4.811 45.704c1.6036 4.8109 24.055 5.6128 27.262 4.8109s12.829-72.966 12.829-72.966l21.649-40.893s-1.6036 109.05-1.6036 113.86 21.649 2.4055 26.46 2.4055 4.8109-80.182 4.8109-80.182l4.8109-20.847 25.658-95.417v-11.226l-4.0091-5.6128s-83.389-4.009-86.597 0z" fill="#2f2e41"/>
<circle cx="365.36" cy="162.22" r="24.856" fill="#a0616a"/>
<path transform="translate(-167.1 -124.77)" d="m544.88 298.62c-5.0384 11.219-2.0551 26.89 8.0182 44.1l-40.893-19.244 6.4146-5.6128-1.6036-16.036z" fill="#a0616a"/>
<path transform="translate(-167.1 -124.77)" d="m544.88 324.27c5.355 3.1836 8.5583 9.0329 10.397 14.985a142.01 142.01 0 0 1 6.1024 33.929l1.9423 34.475 24.055 91.408c-20.847 17.64-32.875 13.631-60.938-0.80186s-31.271 4.8109-31.271 4.8109-2.4055-0.80178 0-3.2073 0 0-2.4054-2.4055 0 0 0.80182-2.4055 0-0.80179-0.80182-1.6036 3.2073-8.0182 3.2073-8.0182l-6.4146-60.137-8.0182-84.993c9.6219-12.027 36.884-22.451 36.884-22.451l24.856 17.64c8.0182 3.2073 1.6036-9.6219 1.6036-9.6219z" fill="#2aa4dd"/>
<path transform="translate(-167.1 -124.77)" d="m468.31 391.23-3.2073 48.109 40.893 58.533c0 13.631 7.2164 16.838 7.2164 16.838a105.99 105.99 0 0 0 7.2164-13.631c4.0091-8.82-2.4054-16.036-2.4054-16.036l-28.064-59.335 12.027-29.667z" fill="#a0616a"/>
<path transform="translate(-167.1 -124.77)" d="m481.94 340.71c-13.631 4.8109-16.036 56.929-16.036 56.929 16.036-8.82 35.28 5.6128 35.28 5.6128s4.009-13.631 8.82-31.271a30.644 30.644 0 0 0-6.4146-28.866s-8.0182-7.2163-21.649-2.4055z" fill="#2aa4dd"/>
<path transform="translate(-167.1 -124.77)" d="m509.6 294.61c3.1643-2.5315 7.4812 2.07 7.4812 2.07l2.5315-22.783s15.822 1.8986 25.948-0.63285 11.708 9.1766 11.708 9.1766a81.264 81.264 0 0 0 0.31643-14.24c-0.63285-5.6958-8.8601-11.392-23.416-15.189s-22.15 12.657-22.15 12.657c-10.126 5.0629-5.5826 31.472-2.4182 28.941z" fill="#2f2e41"/>
<path transform="translate(-167.1 -124.77)" d="m932.12 510.31a2.0258 2.0258 0 0 0 2.0644-1.6377l55.285-300.92a2.0002 2.0002 0 0 0-1.9434-2.3613l-251.53-2.9302h-0.02294a2.0099 2.0099 0 0 0-1.9522 1.5625l-65.174 291.15a1.9993 1.9993 0 0 0 1.854 2.4336z" fill="#e6e6e6"/>
<path transform="translate(-167.1 -124.77)" d="m713.23 529.53a0.99826 0.99826 0 0 0-0.97265 0.77344l-2.3228 9.956a1.0002 1.0002 0 0 0 0.90284 1.2246l131.23 9.3272a1.0091 1.0091 0 0 0 1.0527-0.80664l2.2339-11.519a0.9991 0.9991 0 0 0-0.92188-1.1885l-131.14-7.7656c-0.02-9.7e-4 -0.04048-0.00195-0.0605-0.00195z" fill="#e6e6e6"/>
<path transform="translate(-167.1 -124.77)" d="m872.67 587.81a1.0037 1.0037 0 0 0 1.0508-0.75782l2.8438-11.543a1.0011 1.0011 0 0 0-0.90234-1.2373l-167.59-11.721a0.98881 0.98881 0 0 0-1.0288 0.71289l-2.9551 9.9746a0.99858 0.99858 0 0 0 0.87842 1.2803z" fill="#e6e6e6"/>
<path transform="translate(-167.1 -124.77)" d="m863.67 624.81a1 1 0 0 0 1.0508-0.75782l2.8438-11.543a1.0011 1.0011 0 0 0-0.90234-1.2373l-167.59-11.721a0.98865 0.98865 0 0 0-1.0288 0.71289l-2.9551 9.9746a0.99858 0.99858 0 0 0 0.87842 1.2803z" fill="#e6e6e6"/>
<path transform="translate(-167.1 -124.77)" d="m786.48 688.28a0.98887 0.98887 0 0 0 1.0644-0.75391l6.0127-24.051a1.0007 1.0007 0 0 0-0.88623-1.2402l-102.92-8.6562a1.0183 1.0183 0 0 0-1.0601 0.7793l-5.1294 23.083a1.001 1.001 0 0 0 0.88281 1.2129z" fill="#2aa4dd"/>
</svg>
