<svg xmlns="http://www.w3.org/2000/svg" viewBox="0 0 711.19 669.71"><defs><style>.cls-1{fill:#e6e6e6;}.cls-2{opacity:0.1;isolation:isolate;}.cls-3{fill:#3f3d56;}.cls-4{fill:#f2f2f2;}.cls-5{fill:#2f2e41;}.cls-6{fill:#ffb8b8;}.cls-7,.cls-8{fill:#2aa4dd;}.cls-8{font-size:61.53px;font-family:MyriadPro-Semibold, Myriad Pro;font-weight:600;}.cls-9{letter-spacing:-0.02em;}.cls-10{letter-spacing:-0.09em;}.cls-11{letter-spacing:-0.02em;}.cls-12{letter-spacing:0em;}</style></defs><title>riskfree</title><g id="Layer_2" data-name="Layer 2"><g id="b52d7e2d-d80f-4111-b6ed-d15502ee1edd"><polygon class="cls-1" points="516.33 380.05 516.33 565.04 547.27 615.47 549.63 619.31 671.72 619.31 674.19 380.05 516.33 380.05"/><polygon class="cls-2" points="516.33 380.05 516.33 565.04 547.27 615.47 549.17 380.05 516.33 380.05"/><polygon class="cls-1" points="221.57 375.11 221.57 560.11 190.62 610.54 188.27 614.37 66.17 614.37 63.7 375.11 221.57 375.11"/><polygon class="cls-2" points="221.57 375.11 221.57 560.11 190.62 610.54 188.72 375.11 221.57 375.11"/><polygon class="cls-1" points="711.19 371.41 711.19 382.51 47.67 382.51 47.67 366.48 109.33 334.41 656.92 334.41 711.19 371.41"/><polygon class="cls-2" points="711.19 371.41 711.19 382.51 47.67 382.51 47.67 366.48 711.19 371.41"/><polygon class="cls-3" points="142.63 426.91 113.03 426.91 100.7 418.28 156.2 418.28 142.63 426.91"/><polygon class="cls-3" points="142.63 462.68 113.03 462.68 100.7 454.05 156.2 454.05 142.63 462.68"/><polygon class="cls-3" points="142.63 513.24 113.03 513.24 100.7 504.61 156.2 504.61 142.63 513.24"/><polygon class="cls-3" points="142.63 563.81 113.03 563.81 100.7 555.18 156.2 555.18 142.63 563.81"/><polygon class="cls-3" points="595.26 431.85 624.86 431.85 637.19 423.21 581.69 423.21 595.26 431.85"/><polygon class="cls-3" points="595.26 467.61 624.86 467.61 637.19 458.98 581.69 458.98 595.26 467.61"/><polygon class="cls-3" points="595.26 518.18 624.86 518.18 637.19 509.54 581.69 509.54 595.26 518.18"/><polygon class="cls-3" points="595.26 568.74 624.86 568.74 637.19 560.11 581.69 560.11 595.26 568.74"/><path class="cls-3" d="M615.41,120.48H366.23a9.43,9.43,0,0,0-9.43,9.43h0V297.77a9.43,9.43,0,0,0,9.43,9.42h94.59l-3.54,22.63s-20.26,10.76-6,11.07,81.33,0,81.33,0,13,0-7.59-11.39l-3.34-22.31h93.75a9.43,9.43,0,0,0,9.43-9.42h0V129.91a9.43,9.43,0,0,0-9.42-9.43Z"/><rect class="cls-4" x="365.82" y="130.45" width="250" height="139.87"/><circle class="cls-4" cx="490.82" cy="126.02" r="1.58"/><circle class="cls-4" cx="490.82" cy="294.37" r="6.01"/><polygon class="cls-3" points="481.45 357.98 481.45 361.15 311.2 361.15 311.2 358.61 311.44 357.98 315.63 346.59 477.97 346.59 481.45 357.98"/><path class="cls-3" d="M547,354.88c-.31,1.33-1.48,2.73-4.13,4.05-9.49,4.75-28.79-1.27-28.79-1.27s-14.88-2.53-14.88-9.17a11.59,11.59,0,0,1,1.31-.78c4-2.11,17.22-7.32,40.69.22a9.85,9.85,0,0,1,4.46,2.93A4.68,4.68,0,0,1,547,354.88Z"/><path class="cls-2" d="M547,354.88c-11.62,4.46-22,4.79-32.61-2.6a23.35,23.35,0,0,0-13.88-4.57c4-2.11,17.22-7.32,40.69.22a9.85,9.85,0,0,1,4.46,2.93A4.68,4.68,0,0,1,547,354.88Z"/><ellipse class="cls-4" cx="532.4" cy="351.02" rx="4.11" ry="1.27"/><polygon class="cls-2" points="481.45 357.98 481.45 361.15 311.2 361.15 311.2 358.61 311.44 357.98 481.45 357.98"/><path class="cls-5" d="M94.66,0a8.51,8.51,0,0,0-5,1.11c-1.48,1-2.41,2.78-3.36,4.43a53,53,0,0,1-14.43,16.3c-4.29,3.14-9.74,7.06-9,12.85A17.58,17.58,0,0,0,65,40.15c4,8,14.76,14.16,13.69,23.27,3.94-6.58-1.32-9.83,2.61-16.41,1.87-3.14,5.12-6.68,7.95-4.71,1,.66,1.57,1.84,2.55,2.42,2.35,1.38,4.85-1.26,6.94-3.12,7.17-6.45,17.38-4.76,26.31-2.75,4.22.95,8.85,2.19,11.34,6.22,3.28,5.3-3.11,11-4.73,17a3.27,3.27,0,0,0,2.35,4,3.42,3.42,0,0,0,1.15.08c2.68-.26,5.86-.48,6-1.66,3.37.12,7.5-.26,8.94-3.77a14.54,14.54,0,0,0,.7-4.29c.53-5.9,3-11.28,4.69-16.89s2.38-12.19-.42-17.17a19.83,19.83,0,0,0-3.67-4.45C135.53,2.54,114.66,0,94.66,0Z"/><path class="cls-6" d="M82.14,74.93s3.45,28.78-9.21,31.08,11.51,41.45,11.51,41.45l57.56,6.9-13.82-46s-9.21-3.46-3.45-26.48S82.14,74.93,82.14,74.93Z"/><polygon class="cls-6" points="47.03 569.35 51.63 632.66 75.81 632.66 68.9 569.35 47.03 569.35"/><polygon class="cls-6" points="224.3 449.63 227.76 502.58 254.23 491.07 243.87 447.33 224.3 449.63"/><path class="cls-5" d="M29.76,327.61s1.15,66.76,8.06,88.64,5.75,23,4.6,26.47-2.3,1.15-2.3,6.91-2.3,96.69,0,104.75-6.91,21.87,0,23,39.14,0,40.29-6.9-9.21-9.21-4.6-13.82,11.51-99,11.51-99l16.11-65.62,29.93-34.53h63.32l19.57,76s-8.06,21.87-2.31,21.87,40.29,6.91,40.29-18.41-11.51-100.15-13.81-102.46,1.15-10.36-2.3-13.81-43.75-27.63-58.71-32.23-36-10.09-36-10.09Z"/><path class="cls-5" d="M254.23,481.86S237,476.1,228.91,493.37s-4.61,21.87-4.61,21.87,26.48,9.21,31.08,4.61c2-2,8.37-2.7,14.92-2.85,10-.22,12.62-14.33,3.2-17.62a8.29,8.29,0,0,0-.85-.25C263.44,496.83,254.23,481.86,254.23,481.86Z"/><circle class="cls-6" cx="108.04" cy="59.39" r="34.53"/><path class="cls-7" d="M63.14,120.4s56.41,11.51,70.22-6.9,19.57,51.8,19.57,51.8L159.84,239l-10.36,40.29S95.38,323,78.11,326.46s-43.74,5.75-43.74,5.75,8.05-127.77,8.05-130.08S63.14,120.4,63.14,120.4Z"/><path class="cls-5" d="M80.3,98.81s-12.55-7.18-16-.28-35.69,24.18-39.14,24.18,6.9,95.54,2.3,107.05S1,325.31,13.65,332.21s3.45-6.9,16.11,10.36,74.82,17.27,78.28,10.36-27.63-58.7-21.87-107,15-115.12,6.9-124.33S80.3,98.81,80.3,98.81Z"/><path class="cls-5" d="M121.85,106.59l1.61-5.52s47.89,15.88,50.19,26.24,1.15,82.88-6.9,88.64-19.57,15-11.52,28.78,17.27,28.77,24.18,29.93,19.57,9.2,16.11,17.26-44.89-6.9-44.89-6.9-27.63-20.72-26.48-53S121.85,106.59,121.85,106.59Z"/><path class="cls-6" d="M162.14,242.42l-27.63,51.81s-40.29,41.44-17.26,46,35.68-38,35.68-38l29.93-42.59Z"/><path class="cls-5" d="M96.34,9.06a7.8,7.8,0,0,0-4,.79A9.27,9.27,0,0,0,89.57,13,39.7,39.7,0,0,1,77.82,24.5c-3.49,2.22-7.93,5-7.33,9.09a11.27,11.27,0,0,0,1.7,3.83,30.2,30.2,0,0,1,3.67,18.8l9.6-13.95c1.52-2.22,4.17-4.72,6.47-3.33.77.47,1.28,1.3,2.08,1.71,1.91,1,3.95-.89,5.64-2.21,5.84-4.55,14.15-3.36,21.42-1.94,3.44.67,7.21,1.55,9.23,4.4,3.38,4.73-.14,11.57,1.82,17a5,5,0,0,0,2.08-3.32c2.75.09,6.11-.18,7.28-2.66a9.3,9.3,0,0,0,.57-3c.43-4.17,2.47-8,3.82-11.94s1.93-8.61-.34-12.13a14.89,14.89,0,0,0-3-3.15C129.62,10.84,112.62,9.05,96.34,9.06Z"/><path class="cls-5" d="M162.14,122.71l10.73,2.84s25,63.92,19.2,107.66-9.21,34.54-9.21,34.54-9.21-20.72-29.93-16.12Z"/><path class="cls-5" d="M48.62,624.29c-2.77,3.77-2.22,9.17-4.68,13.15-2.13,3.46-6.14,5.27-8.81,8.33A22.89,22.89,0,0,0,32.86,649c-2.47,4.14-4.48,9.45-2,13.62,2,3.35,6.07,4.66,9.85,5.55,4.78,1.13,9.74,2,14.56,1.17s9.55-3.82,11.28-8.41a31.15,31.15,0,0,1,1.2-3.4c2.62-5.16,10.83-5.21,13.51-10.33,1.87-3.59.15-7.92-1.57-11.58l-5.27-11.18c-1.74-3.71-8.82-1.57-12.51-2.46C57.06,620.85,52.08,619.57,48.62,624.29Z"/><path class="cls-6" d="M10.19,265.45l48.35,74.82s29.93,38,39.14,20.72-32.23-46-32.23-46L34.37,257.39Z"/><path class="cls-5" d="M34.37,125l-9.21-2.3s-18.42,5.75-23,29.93S1,273.5,6.74,274.66s28.43-16.84,32.05-13-7.88-15.75-4.42-26.11S34.37,125,34.37,125Z"/><text class="cls-8" transform="translate(379.43 221.32)">30 <tspan class="cls-9" x="78.7" y="0">D</tspan><tspan class="cls-10" x="119.81" y="0">A</tspan><tspan class="cls-11" x="153.53" y="0">Y</tspan><tspan class="cls-12" x="187.56" y="0">S</tspan></text></g></g></svg>