<svg shape-rendering="geometricPrecision" text-rendering="geometricPrecision" viewBox="0 0 970.15 753.56" xmlns="http://www.w3.org/2000/svg">
<path d="m718.77 430.51-192.67-240.76c-8.7307 7.9923-19.489 13.433-31.1 15.73-36.27 7.15-71.7-17.62-79.12-55.32-5.25-26.65 4.91-52.61 24.12-68.07l-65.74-82.09-374.26 319.86 344.51 430.51z" fill="#f2f2f2"/>
<line x1="82.15" x2="970.15" y1="752.56" y2="752.56" fill="none" stroke="#3f3d56" stroke-miterlimit="10" stroke-width="2"/>
<circle transform="translate(619.43 56.92)" r="14.76" fill="none" stroke="#3f3d56" stroke-miterlimit="10" stroke-width="2"/>
<circle transform="translate(814.43 485.92)" r="14.76" fill="none" stroke="#3f3d56" stroke-miterlimit="10" stroke-width="2"/>
<circle transform="translate(170.7 93.92)" r="14.76" fill="none" stroke="#3f3d56" stroke-miterlimit="10" stroke-width="2"/>
<circle transform="translate(479.38 139.73)" r="54.32" fill="#f2f2f2"/>
<path d="m156.88 109.38h240.62c23.914 0.002567 44.637 16.572 49.9 39.9l121.6 539.27c2.4169 10.703 0.48059 21.928-5.3825 31.203s-15.172 15.839-25.877 18.247c-2.3207 0.53324-4.6825 0.86778-7.06 1l-247.35 12.12c-27.399 1.3473-51.546-17.836-56.43-44.83l-68.97-381.29-5.13 1.47-13.2-72.27 5.28-1.32-19.25-106.4c-3.095-17.111 8.2608-33.494 25.37-36.6 1.9397-0.35248 3.9086-0.5199 5.88-0.5z" fill="#3f3d56"/>
<path d="m365.82 121h28.09c16.621 0.003173 30.996 11.581 34.54 27.82l116.69 534.87c1.2394 5.6745 0.1727 11.609-2.9651 16.497-3.1378 4.8877-8.0895 8.328-13.765 9.5634-1.0628 0.23849-2.1429 0.3923-3.23 0.46l-246.56 16.16c-14.401 0.94536-27.216-9.0755-29.77-23.28l-99.58-552.84c-1.292-7.2413 0.68647-14.683 5.404-20.327s11.69-8.9105 19.046-8.9233h26.65c5.3012 0.002954 9.9416 3.5611 11.32 8.68 1.22 4.5193 5.3189 7.6591 10 7.66h126.49c9.2469 8.3e-4 16.934-7.1201 17.64-16.34z" fill="#2aa4dd"/>
<rect transform="translate(189.25 259.25)" width="255.13" height="1.26" rx="0" ry="0" fill="#2f2e41"/>
<rect transform="translate(196.79 300.1)" width="257.64" height="1.26" rx="0" ry="0" fill="#2f2e41"/>
<polygon points="205.36 257.26 211.15 249.53 210.15 248.78 205.14 255.46 185.83 239.66 185.04 240.63" fill="#2f2e41"/>
<polygon points="238.66 439.49 244.46 431.76 243.45 431.01 238.44 437.69 219.14 421.89 218.34 422.87" fill="#2f2e41"/>
<rect transform="matrix(.99978 -.021117 .021117 .99978 215.6 445.26)" width="267.12" height="1.26" rx="0" ry="0" fill="#2f2e41"/>
<rect transform="matrix(.99974 -.023036 .023036 .99974 218.73 482.96)" width="272.16" height="1.26" rx="0" ry="0" fill="#2f2e41"/>
<path d="m324 583.81c0.42282 32.667 27.025 58.927 59.695 58.927s59.272-26.26 59.695-58.927c0-0.75 0-1.49-0.05-2.23-1.1911-32.527-28.222-58.103-60.765-57.495-32.543 0.60811-58.6 27.176-58.575 59.725z" opacity=".1" style="isolation:isolate"/>
<path d="m329.69 607.06v2.23c11.932 25.261 39.786 38.872 67.047 32.763 27.262-6.1093 46.643-30.305 46.653-58.243 0-0.75 0-1.49-0.05-2.23-11.925-25.269-39.781-38.887-67.046-32.776s-46.645 30.315-46.644 58.256z" opacity=".1" style="isolation:isolate"/>
<circle transform="translate(692.95 234.92)" r="36.8" fill="#2f2e41"/>
<polygon points="732.65 696.06 739.65 726.06 722.65 726.06 715.65 692.06" fill="#9f616a"/>
<polygon points="650.65 696.06 650.65 724.06 633.65 726.06 633.65 696.06" fill="#9f616a"/>
<path d="m737.65 378.06s-2 43-4 46-20 46-20 46l-9-28s14-23 12-36-0.74-29-0.74-29z" fill="#9f616a"/>
<circle transform="translate(680.65 246.06)" r="28" fill="#9f616a"/>
<path d="m703.65 249.06s-1 40 6 46-40 1-40 1 10-28 2-34 32-13 32-13z" fill="#9f616a"/>
<path d="m666.65 294.06s6-11 14-10 34 3 35 5 4 9 6 11 17 5 18 17-36 85-36 85 5 17 4 21 5 16 4 21 15 35 7 74v63s27 109 19 117-35 3-40 0-26-154-26-154l-10-51-1 112s2 94-5 97-34 4-36-2c-1.56-4.68-9.2-129.18-12.49-183.76-1.1372-18.841 0.34695-37.748 4.41-56.18 4.16-18.88 10.2-41.05 17.08-50.06 13-17 21-71 21-71l-17-31s10-10 16-10 18-4 18-4z" fill="#2f2e41"/>
<path d="m733.65 310.06 5.28 3.59s3.72 64.41 0.72 68.41-23.85 2.05-25.42-1.47 19.42-70.53 19.42-70.53z" fill="#2f2e41"/>
<path d="m644.48 368.63c2.92 20.3 5.52 38.37-9.48 54.73-15.038 16.556-32.001 31.253-50.53 43.78-1.84 4.86-28.79 40.57-30.16 26.32s7.94-25.41 21.17-37.45 31.75-38.18 42.19-52.52 6.15-23.29 5.78-35.26 16.92 0.54 21.03 0.4z" fill="#9f616a"/>
<path d="m633.65 707.86s-1 11.2-4 14.2-11 7-10 18 7.5 11.5 7.5 11.5l-0.5-2.5 3 1 0.5 1.5h28s0.5-10.5-0.5-15.5-1-29-4-28-11 2-13 6-8 2.6-7-6.2z" fill="#2f2e41"/>
<path d="m735.65 707.86s1 11.2 4 14.2 11 7 10 18-7.5 11.5-7.5 11.5l0.5-2.5-3 1-0.5 1.5h-28s-0.5-10.5 0.5-15.5 1-29 4-28 11 2 13 6 8 2.6 7-6.2z" fill="#2f2e41"/>
<path d="m646.65 305.06-14 3s0 22-4 31-11 30-8 31 31 15 33 7 7-72-7-72z" fill="#2f2e41"/>
<circle transform="translate(732.82 186.46)" r="36.8" fill="#2f2e41"/>
<path d="m764.56 216.94c-9.6668 6.9819-22.117 8.8485-33.406 5.0086-11.289-3.8399-20.019-12.911-23.424-24.339 1.7444 13.75 11.066 25.353 24.117 30.02 13.051 4.6666 27.616 1.605 37.684-7.9209s13.929-23.9 9.9898-37.189c1.676 13.345-4.0596 26.541-14.96 34.42z" fill="#2f2e41"/>
<circle transform="translate(702.77 241.05)" r="26.99" fill="#2f2e41"/>
<ellipse transform="translate(680.07 230.93)" rx="23.92" ry="18.71" fill="#2f2e41"/>
<ellipse transform="translate(673.69 250.1)" rx="4.54" ry="8.03" fill="#a0616a"/>
<circle transform="translate(852.64 94.11)" r="47.91" fill="#2aa4dd"/>
<path d="m869.33 37.17c-4.336-0.55002-8.724-0.55002-13.06 0-19.717 2.6187-36.113 16.461-42 35.46-1.3347 4.2397-2.0981 8.6385-2.27 13.08v1.86c0.027553 28.052 22.758 50.787 50.81 50.82 1.08 0 2.16 0 3.23-0.11 2.5052-0.14244 4.9959-0.47675 7.45-1 24.186-5.2046 41.11-27.07 40.085-51.788-1.025-24.719-19.701-45.107-44.235-48.292zm9.38 97.14c-4.1064 1.3972-8.3807 2.2413-12.71 2.51-1.07 0.08-2.15 0.11-3.23 0.11-27.249-0.027561-49.332-22.111-49.36-49.36v-1.86c0.94621-24.919 20.331-45.219 45.18-47.313 24.849-2.0938 47.357 14.676 52.46 39.086 5.1027 24.41-8.8028 48.791-32.41 56.827z" fill="#3f3d56"/>
<rect transform="translate(862.08 41.12)" width="1.45" height="10.16" rx="0" ry="0" fill="#3f3d56"/>
<rect transform="matrix(.70711 -.70711 .70711 .70711 829.44 55.244)" width="1.45" height="10.16" rx="0" ry="0" fill="#3f3d56"/>
<rect transform="translate(816.34 86.85)" width="10.16" height="1.45" rx="0" ry="0" fill="#3f3d56"/>
<rect transform="matrix(.70711 -.70711 .70711 .70711 829.43 119.91)" width="10.16" height="1.45" rx="0" ry="0" fill="#3f3d56"/>
<rect transform="matrix(.70711 -.70711 .70711 .70711 887.95 61.393)" width="10.16" height="1.45" rx="0" ry="0" fill="#3f3d56"/>
<rect transform="translate(899.1 86.85)" width="10.16" height="1.45" rx="0" ry="0" fill="#3f3d56"/>
<rect transform="matrix(.70711 -.70711 .70711 .70711 887.95 113.75)" width="1.45" height="10.16" rx="0" ry="0" fill="#3f3d56"/>
<rect transform="translate(862.08 123.87)" width="1.45" height="10.16" rx="0" ry="0" fill="#3f3d56"/>
<rect transform="translate(856.27 24.42)" width="13.07" height="13.07" rx="0" ry="0" fill="#3f3d56"/>
<path d="m862.8 14.26c9.62 0 17.42 2.76 17.42 6.17s-7.8 6.17-17.42 6.17-17.42-2.76-17.42-6.17 7.8-6.17 17.42-6.17" fill="#3f3d56"/>
<g transform="translate(862.8 87.574)">
<g transform="translate(-862.8 -87.574)" fill="#3f3d56">
<rect transform="translate(860.62 59.99)" width="4.36" height="24.68" rx="0" ry="0"/>
<path d="m865 84.67c-1.2915-0.97-3.0685-0.97-4.36 0-0.41782 0.32937-0.75904 0.74566-1 1.22-0.90756 1.7096-0.31404 3.8307 1.3491 4.821 1.6631 0.9903 3.8107 0.50149 4.8813-1.111s0.68773-3.7815-0.87036-4.9299zm-2.18 5.08c-1.2017-0.005475-2.1745-0.97829-2.18-2.18 0.00654-0.43938 0.14217-0.86713 0.39-1.23 0.58794-0.84434 1.688-1.1597 2.634-0.75521s1.4779 1.4178 1.2736 2.4262c-0.20433 1.0084-1.0887 1.7347-2.1176 1.739z"/>
</g>
</g>
<line x1="931.99" x2="795.53" y1="137.63" y2="137.63" fill="#3f3d56"/>
<line x1="795.53" x2="931.99" y1="136.17" y2="136.17" fill="#3f3d56"/>
</svg>
